# xmcd
#
# Track frame offsets:
#	150
#	16210
#	36468
#	53123
#	69786
#	85980
#	104127
#	121100
#	136224
#	152043
#	167528
#	183820
#	199919
#	215779
#	232752
#	248352
#	264414
#	280446
#	297005
#	317780
#
# Disc length: 4449 seconds
#
# Revision: 1
# Processed by: cddbd v1.5PL3 Copyright (c) Steve Scherf et al.
# Submitted via: audiograbber 1.82.02
#
DISCID=16115f14
DTITLE=Wolfgang Petry  - Konkret 2000  Cd 1
DYEAR=2000
DGENRE=A Cappella
TTITLE0=Da geht mir voll einer Ab
TTITLE1=Komm`
TTITLE2=Weiss`der Geier
TTITLE3=Geil,Geil,Geil
TTITLE4=So ein Schwein
TTITLE5=Der Längste Single der Welt 2
TTITLE6=Weiber
TTITLE7=Augen zu und Durch
TTITLE8=Verlieben,Verloren,Vergessn Verzeihn
TTITLE9=Der Himmel Brennt
TTITLE10=Hab noch lange nicht genug
TTITLE11=Alles würd ich tun für dich
TTITLE12=Du bist ein Wunder
TTITLE13=Wahnsinn
TTITLE14=Sieben Tage,Sieben Nächte 
TTITLE15=Da geht mir voll einer ab
TTITLE16=Das darf doch nicht war sein
TTITLE17=Der Sommer von Damals
TTITLE18=Ich schaff das schon
TTITLE19=Da geht mir voll einer ab
EXTD=
EXTT0=
EXTT1=
EXTT2=
EXTT3=
EXTT4=
EXTT5=
EXTT6=
EXTT7=
EXTT8=
EXTT9=
EXTT10=
EXTT11=
EXTT12=
EXTT13=
EXTT14=
EXTT15=
EXTT16=
EXTT17=
EXTT18=
EXTT19=
PLAYORDER=
